<?xml version="1.0" encoding="utf-8"?>
<!-- Generator: Adobe Illustrator 24.1.2, SVG Export Plug-In . SVG Version: 6.00 Build 0)  -->
<svg version="1.1" id="Layer_1" xmlns="http://www.w3.org/2000/svg" xmlns:xlink="http://www.w3.org/1999/xlink" x="0px" y="0px"
	 viewBox="0 0 18 18" style="enable-background:new 0 0 18 18;fill:#FFFFFF;" xml:space="preserve">
<!--<style type="text/css">-->
<!--	.st0{}-->
<!--</style>-->
<g id="Icon" transform="translate(-245 -245)">
	<g id="Group_286">
		<g id="Group_285">
			<path id="Path_419" class="st0" d="M254,245c-5,0-9,4-9,9c0,5,4,9,9,9c5,0,9-4,9-9C263,249,259,245,254,245z M254,261.6
				c-4.2,0-7.6-3.4-7.6-7.6c0-4.2,3.4-7.6,7.6-7.6c4.2,0,7.6,3.4,7.6,7.6c0,0,0,0,0,0C261.6,258.2,258.2,261.6,254,261.6z"/>
		</g>
	</g>
	<g id="Group_288">
		<g id="Group_287">
			<path id="Path_420" class="st0" d="M257.5,253.2h-2.8v-2.8c0-0.4-0.4-0.7-0.7-0.6c-0.3,0-0.6,0.3-0.6,0.6v2.8h-2.8
				c-0.4,0-0.7,0.3-0.7,0.6c0,0.4,0.3,0.7,0.6,0.7c0,0,0.1,0,0.1,0h2.8v2.8c0,0.4,0.3,0.7,0.6,0.7s0.7-0.3,0.7-0.6c0,0,0-0.1,0-0.1
				v-2.8h2.8c0.4,0,0.7-0.4,0.6-0.7C258.1,253.5,257.8,253.3,257.5,253.2L257.5,253.2z"/>
		</g>
	</g>
</g>
</svg>
