<?xml version="1.0" encoding="utf-8"?>
<!-- Generator: Adobe Illustrator 24.1.2, SVG Export Plug-In . SVG Version: 6.00 Build 0)  -->
<svg version="1.1" id="Layer_1" xmlns="http://www.w3.org/2000/svg" xmlns:xlink="http://www.w3.org/1999/xlink" x="0px" y="0px"
	 viewBox="0 0 136 36" style="enable-background:new 0 0 136 36;" xml:space="preserve">

<g id="logo" transform="translate(0)">
	<g id="Group_9202" transform="translate(42.643 33.182)">
		<path id="Path_13634" class="fill:#404041;" d="M3.6,0L2.8,2.2H2.4L1.8,0.7L1.2,2.2H0.9L0,0h0.5l0.6,1.5L1.7,0H2l0.6,1.5L3.2,0H3.6z"/>
		<path id="Path_13635" class="fill:#404041;" d="M7.8,2.2H5.5V0h2.2v0.4H6v0.5h1v0.4H6v0.5h1.8V2.2z"/>
		<path id="Path_13636" class="fill:#404041;" d="M15.1,1.7c0,0.1,0,0.3-0.1,0.4c-0.1,0.1-0.3,0.1-0.4,0.1h-1.3c-0.2,0-0.3,0-0.4-0.1
			c-0.1-0.1-0.1-0.3-0.1-0.4V0.5c0-0.1,0-0.3,0.1-0.4C12.9,0,13.1,0,13.2,0h1.3c0.3,0,0.4,0.1,0.5,0.2c0.1,0.2,0.1,0.4,0.1,0.5
			l-0.5,0.1V0.4h-1.4v1.4h1.4V1.3l0.5,0.1L15.1,1.7L15.1,1.7z"/>
		<path id="Path_13637" class="fill:#404041;" d="M19.9,2.2h-0.7l-0.9-0.8h-0.5v0.8h-0.5V0h1.9c0.3,0,0.5,0.1,0.5,0.4v0.5
			c0,0.2-0.1,0.3-0.3,0.4c-0.2,0-0.4,0-0.5,0L19.9,2.2z M19.2,0.8V0.6c0-0.1,0-0.1-0.1-0.1c-0.1,0-0.1,0-0.2,0h-1.1V1H19
			c0.1,0,0.1,0,0.2,0C19.2,0.9,19.2,0.9,19.2,0.8"/>
		<path id="Path_13638" class="fill:#404041;" d="M24.3,2.2h-0.6l-0.3-0.5h-1.4l-0.3,0.5h-0.5L22.6,0h0.5L24.3,2.2z M23.3,1.3l-0.5-0.9
			l-0.5,0.9H23.3z"/>
		<path id="Path_13639" class="fill:#404041;" d="M28.4,0.4h-1.7V1h0.9v0.4h-0.9v0.8h-0.5V0h2.2L28.4,0.4z"/>
		<path id="Path_13640" class="fill:#404041;" d="M32.3,0.4h-1v1.8h-0.5V0.4h-1V0h2.5L32.3,0.4z"/>
		<path id="Path_13641" class="fill:#404041;" d="M39.1,0L38,1.2v1h-0.5v-1L36.4,0H37l0.8,0.8L38.6,0L39.1,0z"/>
		<path id="Path_13642" class="fill:#404041;" d="M43.5,1.7c0,0.1,0,0.3-0.1,0.4c-0.1,0.1-0.3,0.1-0.4,0.1h-1.6c-0.2,0-0.3,0-0.4-0.1
			c-0.1-0.1-0.1-0.3-0.1-0.4V0.5c0-0.1,0-0.3,0.1-0.4C41,0,41.2,0,41.3,0H43c0.1,0,0.3,0,0.4,0.1c0.1,0.1,0.1,0.3,0.1,0.4V1.7z
			 M43,0.4h-1.7v1.4H43V0.4z"/>
		<path id="Path_13643" class="fill:#404041;" d="M48.2,1.7c0,0.1,0,0.3-0.1,0.4c-0.1,0.1-0.3,0.1-0.4,0.1h-1.4c-0.2,0-0.3,0-0.4-0.1
			c-0.1-0.1-0.1-0.3-0.1-0.4V0h0.5v1.8h1.4V0h0.5L48.2,1.7L48.2,1.7z"/>
		<path id="Path_13644" class="fill:#404041;" d="M53.1,2.2h-0.7l-0.9-0.8H51v0.8h-0.5V0h1.9c0.3,0,0.5,0.1,0.5,0.4v0.5c0,0.2-0.1,0.3-0.3,0.4
			c-0.2,0-0.3,0-0.5,0L53.1,2.2z M52.4,0.8V0.6c0-0.1,0-0.1-0.1-0.1c-0.1,0-0.1,0-0.2,0H51V1h1.1c0.1,0,0.1,0,0.2,0
			C52.4,0.9,52.4,0.9,52.4,0.8"/>
		<path id="Path_13645" class="fill:#404041;" d="M60.3,1.8c0,0.3-0.2,0.4-0.6,0.4H58V0h1.9c0.3,0,0.5,0.1,0.5,0.4v0.3c0,0.2-0.1,0.3-0.4,0.4
			c0.2,0,0.4,0.2,0.4,0.4c0,0,0,0,0,0L60.3,1.8L60.3,1.8z M59.9,0.7V0.5c0-0.1-0.1-0.2-0.2-0.2h-1.2v0.5h1.2
			C59.8,0.9,59.9,0.8,59.9,0.7 M59.9,1.6V1.4c0-0.1,0-0.1-0.1-0.2c-0.1,0-0.1,0-0.2,0h-1.2v0.6h1.2c0.1,0,0.1,0,0.2,0
			C59.8,1.7,59.9,1.7,59.9,1.6"/>
		<path id="Path_13646" class="fill:#404041;" d="M65,1.7c0,0.1,0,0.3-0.1,0.4c-0.1,0.1-0.3,0.1-0.4,0.1H63c-0.1,0-0.3,0-0.4-0.1
			c-0.1-0.1-0.1-0.3-0.1-0.4V0H63v1.8h1.5V0H65L65,1.7L65,1.7z"/>
		<path id="Path_13647" class="fill:#404041;" d="M69.7,1.7c0,0.1,0,0.3-0.1,0.4c-0.1,0.1-0.3,0.1-0.4,0.1h-1.4c-0.2,0-0.3,0-0.4-0.1
			c-0.1-0.1-0.1-0.3-0.1-0.5l0.4-0.1v0.3h1.5V1.3h-1.4c-0.2,0-0.3,0-0.4-0.1c-0.1-0.1-0.1-0.3-0.1-0.4V0.5c0-0.1,0-0.3,0.1-0.4
			C67.5,0,67.7,0,67.8,0h1.2c0.2,0,0.3,0,0.4,0.1c0.1,0.1,0.1,0.3,0.1,0.4l-0.4,0.1V0.4h-1.4v0.5h1.4c0.2,0,0.3,0,0.4,0.1
			c0.1,0.1,0.1,0.3,0.1,0.4L69.7,1.7L69.7,1.7z"/>
		<rect id="Rectangle_568" x="71.9" y="0" class="fill:#404041;" width="0.5" height="2.2"/>
		<path id="Path_13648" class="fill:#404041;" d="M77.3,2.2h-0.3l-1.6-1.4c-0.1-0.1-0.1-0.1-0.2-0.2c0,0.1,0,0.3,0,0.3v1.2h-0.5V0h0.3l1.5,1.3
			c0.1,0.1,0.2,0.2,0.3,0.2c0-0.2,0-0.3,0-0.4V0h0.5L77.3,2.2L77.3,2.2z"/>
		<path id="Path_13649" class="fill:#404041;" d="M81.8,2.2h-2.3V0h2.2v0.4h-1.7v0.5h1v0.4h-1v0.5h1.8L81.8,2.2z"/>
		<path id="Path_13650" class="fill:#404041;" d="M86.4,1.7c0,0.1,0,0.3-0.1,0.4c-0.1,0.1-0.3,0.1-0.4,0.1h-1.4c-0.2,0-0.3,0-0.4-0.1
			c-0.1-0.1-0.1-0.3-0.1-0.5l0.4-0.1v0.3h1.5V1.3h-1.4c-0.2,0-0.3,0-0.4-0.1C84,1.1,84,0.9,84,0.8V0.5c0-0.1,0-0.3,0.1-0.4
			C84.2,0,84.4,0,84.5,0h1.2c0.2,0,0.3,0,0.4,0.1c0.1,0.1,0.1,0.3,0.1,0.4l-0.4,0.1V0.4h-1.4v0.5h1.4c0.2,0,0.3,0,0.4,0.1
			c0.1,0.1,0.1,0.3,0.1,0.4L86.4,1.7L86.4,1.7z"/>
		<path id="Path_13651" class="fill:#404041;" d="M90.9,1.7c0,0.1,0,0.3-0.1,0.4c-0.1,0.1-0.3,0.1-0.4,0.1H89c-0.2,0-0.3,0-0.4-0.1
			c-0.1-0.1-0.1-0.3-0.1-0.5l0.5-0.1v0.3h1.5V1.3h-1.4c-0.2,0-0.3,0-0.4-0.1c-0.1-0.1-0.1-0.3-0.1-0.4V0.5c0-0.1,0-0.3,0.1-0.4
			C88.8,0,88.9,0,89.1,0h1.2c0.2,0,0.3,0,0.4,0.1c0.1,0.1,0.1,0.3,0.1,0.4l-0.4,0.1V0.4H89v0.5h1.4c0.2,0,0.3,0,0.4,0.1
			c0.1,0.1,0.1,0.3,0.1,0.4L90.9,1.7L90.9,1.7z"/>
	</g>
	<g id="Group_9203" transform="translate(0 0.108)">
		<path id="Path_13652" style="fill:#65BC46;" d="M11,27.3C3.1,20.5-0.8,11.6,0.8,5.5c-2.6,6.1,1.1,15.7,9.3,22.8s18.2,9.4,23.9,6
			C28.1,36.8,18.8,34.1,11,27.3z"/>
		<path id="Path_13653" style="fill:#65BC46;" d="M1.7,26.1l2.6-4.5c1.2,1.6,2.4,3.1,3.8,4.5H1.7z"/>
		<path id="Path_13654" style="fill:#65BC46;" d="M11.4,21.1c-1.4-1.5-2.5-3.1-3.5-4.8L17.2,0l3.2,5.5L11.4,21.1z"/>
		<path id="Path_13655" style="enable-background:new" opacity="0.3"  d="M11.6,20.7c-1.3-1.5-2.5-3.1-3.5-4.8l0.8-1.4c1,1.8,2.1,3.5,3.5,5L11.6,20.7z"/>
		<path id="Path_13656" style="fill:#1F3667;" d="M36.6,19.7c0.7,3,0.4,5.7-1.2,7.6c-3.8,4.4-13.1,2.5-20.7-4.2S3.8,7.5,7.6,3.1
			c1.6-1.9,4.2-2.6,7.3-2.3C10.3-0.3,6.3,0.4,4,3c-4.3,5-0.7,15.3,8.1,23s19.5,9.9,23.8,4.8C38.2,28.2,38.3,24.1,36.6,19.7z"/>
		<path id="Path_13657" style="fill:#65BC46;" d="M27.3,17.6L27.3,17.6L27.3,17.6L27.3,17.6l-1.7-2.9l0,0l-0.1-0.2v0l-4.1-7.1l-3.1,5.4
			l1.5,2.7h0l2.6,4.5l0,0l1.7,3v0l1.8,3.1h6.3L27.3,17.6z"/>
	</g>
	<g id="Group_9204" transform="translate(42.714 29.792)">
		<rect id="Rectangle_569" x="0" y="0" style="fill:#AEADAE;" width="90.9" height="0.1"/>
	</g>
	<g id="Group_9205" transform="translate(42.747 19.459)">
		<path id="Path_13658" style="fill:#65BC46;" d="M1.4,0.2v6.9H0V0.2H1.4z"/>
		<path id="Path_13659" style="fill:#65BC46;" d="M10.3,0.2h1.4l3.8,4.7h0V0.2h1.4v6.9h-1.4l-3.8-4.7h0v4.7h-1.4V0.2z"/>
		<path id="Path_13660" style="fill:#65BC46;" d="M27.2,7.1h-1.4V0.2h6.1v1.4h-4.7v1.3h2.5v1.4h-2.5V7.1z"/>
		<path id="Path_13661" style="fill:#65BC46;" d="M38.9,3.7c0-1.9,1.5-3.7,4.2-3.7s4.2,1.7,4.2,3.7c0,1.9-1.5,3.7-4.2,3.7S38.9,5.6,38.9,3.7z
			 M46,3.7c0-1.2-1.1-2.3-2.9-2.3s-2.9,1.1-2.9,2.3s1.1,2.3,2.9,2.3S46,4.9,46,3.7z"/>
		<path id="Path_13662" style="fill:#65BC46;" d="M55.3,0.2l1.5,5.1h0l1.4-5.1h1.8l1.4,5.1h0l1.6-5.1h1.4l-2.1,6.9h-1.9l-1.3-5.1h0l-1.3,5.1
			H56l-2.1-6.9L55.3,0.2z"/>
		<path id="Path_13663" style="fill:#65BC46;" d="M73.3,0.2h1.8l3.4,6.9H77l-0.7-1.5h-4l-0.7,1.5H70L73.3,0.2z M72.9,4.3h2.7l-1.3-2.7
			L72.9,4.3z"/>
		<path id="Path_13664" style="fill:#65BC46;" d="M85.7,0.2l1.8,2.7l1.9-2.7h1.7l-2.8,4.1v2.8h-1.4V4.3L84,0.2L85.7,0.2z"/>
	</g>
	<g id="Group_9206" transform="translate(42.666)">
		<path id="Path_13665" style="fill:#1F3667;" d="M18.8,15L11,2.9L3.2,15H0L10,0h2.1L22,15H18.8z"/>
		<path id="Path_13666" style="fill:#1F3667;" d="M38.7,15l-3.5-6.7h-7.9V15h-2.8V0h12.8c0.7,0,1.5,0.1,2.2,0.3c0.5,0.1,1,0.4,1.5,0.7
			c0.4,0.3,0.7,0.7,0.8,1.1c0.2,0.5,0.3,1,0.3,1.5v1.1c0,0.9-0.3,1.8-0.9,2.4c-0.8,0.7-1.8,1.2-2.9,1.2l3.5,6.7L38.7,15z M39.1,3.6
			c0-0.9-0.6-1.4-1.9-1.4h-9.9v3.9h9.9c1.3,0,1.9-0.5,1.9-1.4L39.1,3.6z"/>
		<rect id="Rectangle_570" x="45.4" y="0" style="fill:#1F3667;" width="2.8" height="15"/>
		<path id="Path_13667" style="fill:#1F3667;" d="M59.2,15V2.2h-7.9V0h18.4v2.2H62V15H59.2z"/>
		<path id="Path_13668" style="fill:#1F3667;" d="M80.9,15V8.9L71.3,0h3.6l7.4,6.9L89.7,0h3.6l-9.6,8.9V15L80.9,15z"/>
		
			<rect id="Rectangle_571" x="9.6" y="8.6" transform="matrix(0.7071 -0.7071 0.7071 0.7071 -3.8836 10.7499)" class="st1" width="2.9" height="2.9"/>
	</g>
</g>
</svg>
