<svg id="Layer_1" height="512" viewBox="0 0 512 512" width="512" xmlns="http://www.w3.org/2000/svg" data-name="Layer 1"><rect fill="#6d7486" height="299" rx="30" width="453" x="30" y="90"/><path d="m395.55 321.58h33.5v22.37h-33.5z" fill="#3090fc"/><path d="m395.55 276.83h33.5v22.37h-33.5z" fill="#3090fc"/><path d="m395.55 232.08h33.5v22.37h-33.5z" fill="#3090fc"/><path d="m261.56 131.84h167.49v59.68h-167.49z" fill="#55d8d8"/><g fill="#3090fc"><path d="m328.55 321.58h33.5v22.37h-33.5z"/><path d="m328.55 276.83h33.5v22.37h-33.5z"/><path d="m328.55 232.08h33.5v22.37h-33.5z"/><path d="m261.56 321.58h33.49v22.37h-33.49z"/><path d="m261.56 276.83h33.49v22.37h-33.49z"/><path d="m261.56 232.08h33.49v22.37h-33.49z"/></g><rect fill="#b3d1e7" height="103.87" rx="12" width="131.22" x="82.95" y="131.84"/><path d="m198.42 268h-63.42v-51.99a12.027 12.027 0 0 0 -11.98-12.01h-1.42a12.04 12.04 0 0 0 -12 12l.062 82h-14.712c-6.63 0-11.95 4.9-11.95 11.53v49.49a11.937 11.937 0 0 0 11.95 11.98h14.766l.014 18.352a35.86 35.86 0 0 0 35.55 32.648h29.46a35.84 35.84 0 0 0 35.54-32.645l.14-109.513a11.9 11.9 0 0 0 -12-11.842z" fill="#ffd8b7"/><path d="m60 359v-239a30 30 0 0 1 30-30h-30a30 30 0 0 0 -30 30v239a30 30 0 0 0 30 30h30a30 30 0 0 1 -30-30z" fill="#4a5160"/><path d="m139.73 389.352-.008-48.352a30 30 0 0 0 -30-30h-26.722v48.02a11.98 11.98 0 0 0 11.98 11.98h14.736l.014 18.352a35.86 35.86 0 0 0 35.55 32.648h29.46c.091 0 .18-.006.27-.007a35.857 35.857 0 0 1 -35.28-32.641z" fill="#e2c5af"/><path d="m53.648 260.688a6 6 0 0 1 -6-6v-98.588a6 6 0 0 1 12 0v98.586a6 6 0 0 1 -6 6.002z" fill="#fff"/><path d="m53.648 143.433a6 6 0 0 1 -6-6v-5.65a6 6 0 0 1 12 0v5.65a6 6 0 0 1 -6 6z" fill="#fff"/></svg>