<svg height="512" viewBox="0 0 58 58" width="512" xmlns="http://www.w3.org/2000/svg"><g id="Page-1" fill="none" fill-rule="evenodd"><g id="026---Calendar"><path id="Path" d="m58 9v7h-58v-7c0-2.209139 1.790861-4 4-4h50c2.209139 0 4 1.790861 4 4z" fill="#e64c3c"/><path id="Path" d="m58 16v38c0 2.209139-1.790861 4-4 4h-50c-2.209139 0-4-1.790861-4-4v-38z" fill="#ecf0f1"/><rect id="Rectangle" fill="#95a5a5" height="12" rx="3" width="6" x="5"/><rect id="Rectangle" fill="#95a5a5" height="12" rx="3" width="6" x="19"/><rect id="Rectangle" fill="#95a5a5" height="12" rx="3" width="6" x="33"/><rect id="Rectangle" fill="#95a5a5" height="12" rx="3" width="6" x="47"/><g fill="#d1d4d1"><rect id="Rectangle" height="8" rx="1" width="12" x="6" y="21"/><rect id="Rectangle" height="8" rx="1" width="12" x="23" y="21"/><rect id="Rectangle" height="8" rx="1" width="12" x="40" y="21"/><rect id="Rectangle" height="8" rx="1" width="12" x="6" y="33"/><rect id="Rectangle" height="8" rx="1" width="12" x="23" y="33"/><rect id="Rectangle" height="8" rx="1" width="12" x="40" y="33"/><rect id="Rectangle" height="8" rx="1" width="12" x="6" y="45"/><rect id="Rectangle" height="8" rx="1" width="12" x="23" y="45"/><rect id="Rectangle" height="8" rx="1" width="12" x="40" y="45"/></g></g></g></svg>