<?xml version="1.0" encoding="utf-8"?>
<!-- Generator: Adobe Illustrator 24.1.2, SVG Export Plug-In . SVG Version: 6.00 Build 0)  -->
<svg version="1.1" id="Layer_1" xmlns="http://www.w3.org/2000/svg" xmlns:xlink="http://www.w3.org/1999/xlink" x="0px" y="0px"
	 viewBox="0 0 18 18" style="enable-background:new 0 0 18 18; fill:#97A4C1;" xml:space="preserve">
<style type="text/css">
	.st0{}
</style>
<g id="Group_20" transform="translate(0 1)">
	<g id="Group_19">
		<path id="Path_279" class="st0" d="M9,3.7L2.6,9c0,0,0,0,0,0c0,0,0,0,0,0v5.4c0,0.4,0.3,0.7,0.7,0.7h4.3v-4.3h2.9v4.3h4.3
			c0.4,0,0.7-0.3,0.7-0.7V9.1c0,0,0,0,0-0.1L9,3.7z"/>
		<path id="Path_280" class="st0" d="M17.9,7.8l-2.4-2V1.2c0-0.2-0.1-0.4-0.3-0.4c0,0,0,0,0,0h-2.1c-0.2,0-0.4,0.1-0.4,0.3
			c0,0,0,0,0,0v2.2L9.8,1.1c-0.5-0.4-1.2-0.4-1.7,0l-8,6.7C0.1,7.9,0,8,0,8.1c0,0.1,0,0.2,0.1,0.3l0.7,0.8C0.8,9.2,0.9,9.3,1,9.3
			c0.1,0,0.2,0,0.3-0.1L9,2.7l7.7,6.4c0.1,0.1,0.1,0.1,0.2,0.1h0c0.1,0,0.2-0.1,0.2-0.1l0.7-0.8C18,8.2,18,8.1,18,8.1
			C18,8,18,7.9,17.9,7.8z"/>
	</g>
</g>
</svg>
