<?xml version="1.0" encoding="utf-8"?>
<!-- Generator: Adobe Illustrator 24.1.2, SVG Export Plug-In . SVG Version: 6.00 Build 0)  -->
<svg version="1.1" id="Layer_1" xmlns="http://www.w3.org/2000/svg" xmlns:xlink="http://www.w3.org/1999/xlink" x="0px" y="0px"
	 viewBox="0 0 16 16" style="enable-background:new 0 0 16 16;fill:#37C12F;" xml:space="preserve">
<!--<style type="text/css">-->
<!--	.st0{}-->
<!--</style>-->
<g id="action" transform="translate(-1468 -316)">
	<g id="Group_9224" transform="translate(1468 316)">
		<path id="Path_13673" class="st0" d="M13.8,10.2v3.7H2.2v-3.7H0v4.7C0,15.5,0.5,16,1.1,16c0,0,0,0,0,0h13.8c0.6,0,1.1-0.5,1.1-1.1
			c0,0,0,0,0,0v-4.7H13.8z"/>
		<path id="Path_13674" class="st0" d="M7.8,9.8L4.7,6.1c0,0-0.5-0.4,0-0.4h1.7V0.3c0,0-0.1-0.3,0.3-0.3h2.4c0.3,0,0.3,0.2,0.3,0.2
			v5.3h1.6c0.6,0,0.2,0.5,0.2,0.5s-2.6,3.5-3,3.8C8.2,10,8,10,7.8,9.8C7.8,9.9,7.8,9.8,7.8,9.8z"/>
	</g>
</g>
</svg>
