<?xml version="1.0" encoding="utf-8"?>
<!-- Generator: Adobe Illustrator 24.1.2, SVG Export Plug-In . SVG Version: 6.00 Build 0)  -->
<svg version="1.1" id="Layer_1" xmlns="http://www.w3.org/2000/svg" xmlns:xlink="http://www.w3.org/1999/xlink" x="0px" y="0px"
	 viewBox="0 0 16 16" style="enable-background:new 0 0 16 16; fill:#37C12F;" xml:space="preserve">
<style type="text/css">
<!--	.st0{fill:#37C12F;}-->
</style>
<g id="Group_295" transform="translate(0)">
	<g id="Group_294">
		<path id="Path_429" class="st0" d="M11,6.9c0-0.3-0.3-0.6-0.6-0.6c0,0,0,0,0,0H3.9c-0.3,0-0.6,0.3-0.6,0.6s0.3,0.6,0.6,0.6
			c0,0,0,0,0.1,0h6.4C10.7,7.5,11,7.2,11,6.9C11,6.9,11,6.9,11,6.9z"/>
		<path id="Path_430" class="st0" d="M3.9,8.8C3.5,8.7,3.2,9,3.2,9.3c0,0.3,0.3,0.6,0.6,0.6c0,0,0,0,0.1,0h3.9
			c0.3,0,0.6-0.3,0.6-0.6c0-0.3-0.3-0.6-0.6-0.6c0,0,0,0-0.1,0H3.9z"/>
		<path id="Path_431" class="st0" d="M5.4,14.8H3.2c-0.7,0-1.3-0.5-1.3-1.3c0,0,0,0,0,0v-11c0-0.7,0.6-1.3,1.3-1.2h7.9
			c0.7,0,1.3,0.6,1.3,1.2v3.8c0,0.4,0.3,0.6,0.7,0.6c0.3,0,0.6-0.3,0.6-0.6V2.5c0-1.4-1.2-2.5-2.6-2.5H3.2C1.8,0,0.7,1.1,0.7,2.5v11
			c0,1.4,1.2,2.5,2.6,2.5h2.1C5.7,16,6,15.7,6,15.4C6,15.1,5.8,14.8,5.4,14.8C5.4,14.7,5.4,14.7,5.4,14.8L5.4,14.8z"/>
		<path id="Path_432" class="st0" d="M14.8,9c-0.7-0.7-1.9-0.7-2.7,0l-3.4,3.4c-0.1,0.1-0.1,0.2-0.2,0.3l-0.7,2.5
			c-0.1,0.3,0.1,0.7,0.4,0.8c0.1,0,0.1,0,0.2,0c0.1,0,0.1,0,0.2,0l2.5-0.7c0.1,0,0.2-0.1,0.3-0.2l3.4-3.4C15.5,11,15.5,9.8,14.8,9z
			 M10.6,14.1l-1.3,0.4l0.4-1.2l2.3-2.3l0.9,0.9L10.6,14.1z M13.9,10.8l-0.1,0.1l-0.9-0.9L13,9.9c0.2-0.2,0.6-0.2,0.9,0
			S14.1,10.6,13.9,10.8L13.9,10.8z"/>
		<path id="Path_433" class="st0" d="M10.4,3.8H3.9C3.6,3.7,3.3,4,3.3,4.3S3.5,5,3.9,5c0,0,0,0,0.1,0h6.4C10.7,5,11,4.7,11,4.4
			S10.7,3.8,10.4,3.8C10.4,3.7,10.4,3.7,10.4,3.8L10.4,3.8z"/>
	</g>
</g>
</svg>
