<?xml version="1.0" encoding="utf-8"?>
<!-- Generator: Adobe Illustrator 24.1.2, SVG Export Plug-In . SVG Version: 6.00 Build 0)  -->
<svg version="1.1" id="Layer_1" xmlns="http://www.w3.org/2000/svg" xmlns:xlink="http://www.w3.org/1999/xlink" x="0px" y="0px"
	 viewBox="0 0 16 16" style="enable-background:new 0 0 16 16;" xml:space="preserve">
<style type="text/css">
	.st0{fill:#37C12F;}
</style>
<g id="job_type" transform="translate(-10 -10.821)">
	<path id="Path_9129" class="st0" d="M24.7,14.8h-2.4v-2.2c0-0.5-0.4-0.9-0.9-0.9h-6.8c-0.5,0-0.9,0.4-0.9,0.9v2.2h-2.4
		c-0.7,0-1.3,0.6-1.3,1.3l0,0v8.6c0,0.7,0.6,1.3,1.3,1.3c0,0,0,0,0,0h13.3c0.7,0,1.3-0.6,1.3-1.3l0,0v-8.6
		C26,15.4,25.4,14.8,24.7,14.8L24.7,14.8z M15.5,13.4h5.1v1.4h-5.1V13.4z"/>
</g>
</svg>
