<?xml version="1.0" encoding="utf-8"?>
<!-- Generator: Adobe Illustrator 24.1.2, SVG Export Plug-In . SVG Version: 6.00 Build 0)  -->
<svg version="1.1" id="Layer_1" xmlns="http://www.w3.org/2000/svg" xmlns:xlink="http://www.w3.org/1999/xlink" x="0px" y="0px"
	 viewBox="0 0 18 18" style="enable-background:new 0 0 18 18;" xml:space="preserve">
<style type="text/css">
	.st0{fill:#97A4C1;}
	.st1{display:none;}
	.st2{display:inline;fill:#97A4C1;}
	.st3{display:inline;}
</style>
<g id="icon-4" transform="translate(2 1)">
	<path id="Path_284" style="fill:#97A4C1;" d="M15.5,0.9c-0.3-0.3-0.8-0.5-1.2-0.5H-0.3c-1,0-1.7,0.8-1.7,1.7v11.8c0,1,0.8,1.7,1.7,1.7h14.5
		c1,0,1.7-0.8,1.7-1.7V2.1C16,1.7,15.8,1.2,15.5,0.9z M3.5,13.9c0,0.2-0.1,0.3-0.3,0.3c0,0,0,0,0,0h-3.5c-0.2,0-0.3-0.1-0.3-0.3
		c0,0,0,0,0,0v-2.1c0-0.2,0.1-0.3,0.3-0.3c0,0,0,0,0,0h3.5c0.2,0,0.3,0.1,0.3,0.3c0,0,0,0,0,0V13.9z M3.5,9.7c0,0.1,0,0.2-0.1,0.2
		c-0.1,0.1-0.2,0.1-0.2,0.1h-3.5c-0.2,0-0.3-0.1-0.3-0.3c0,0,0,0,0,0V7.7c0-0.2,0.1-0.3,0.3-0.3c0,0,0,0,0,0h3.5
		c0.2,0,0.3,0.1,0.3,0.3c0,0,0,0,0,0V9.7L3.5,9.7z M3.5,5.6c0,0.1,0,0.2-0.1,0.2C3.4,5.9,3.3,5.9,3.2,5.9h-3.5c-0.1,0-0.2,0-0.2-0.1
		c-0.1-0.1-0.1-0.2-0.1-0.2V3.5c0-0.2,0.1-0.3,0.3-0.3c0,0,0,0,0,0h3.5c0.2,0,0.3,0.1,0.3,0.3c0,0,0,0,0,0L3.5,5.6L3.5,5.6z
		 M9.1,13.9c0,0.1,0,0.2-0.1,0.2c-0.1,0.1-0.2,0.1-0.2,0.1H5.3c-0.2,0-0.3-0.1-0.3-0.3c0,0,0,0,0,0v-2.1c0-0.2,0.1-0.3,0.3-0.3
		c0,0,0,0,0,0h3.5c0.2,0,0.3,0.1,0.3,0.3c0,0,0,0,0,0L9.1,13.9L9.1,13.9z M9.1,9.7c0,0.2-0.1,0.3-0.3,0.3c0,0,0,0,0,0H5.3
		c-0.2,0-0.3-0.1-0.3-0.3c0,0,0,0,0,0V7.7c0-0.2,0.1-0.3,0.3-0.3c0,0,0,0,0,0h3.5c0.1,0,0.2,0,0.2,0.1C9,7.5,9.1,7.6,9.1,7.7
		L9.1,9.7L9.1,9.7z M9.1,5.6c0,0.2-0.1,0.3-0.3,0.3c0,0,0,0,0,0H5.3c-0.1,0-0.2,0-0.2-0.1C5,5.8,4.9,5.7,4.9,5.6V3.5
		c0-0.2,0.1-0.3,0.3-0.3c0,0,0,0,0,0h3.5c0.2,0,0.3,0.1,0.3,0.3c0,0,0,0,0,0L9.1,5.6L9.1,5.6z M14.6,13.9c0,0.1,0,0.2-0.1,0.2
		c-0.1,0.1-0.2,0.1-0.2,0.1h-3.5c-0.2,0-0.3-0.1-0.3-0.3c0,0,0,0,0,0v-2.1c0-0.2,0.1-0.3,0.3-0.3c0,0,0,0,0,0h3.5
		c0.2,0,0.3,0.1,0.3,0.3c0,0,0,0,0,0L14.6,13.9z M14.6,9.7c0,0.2-0.1,0.3-0.3,0.3c0,0,0,0,0,0h-3.5c-0.2,0-0.3-0.1-0.3-0.3
		c0,0,0,0,0,0V7.7c0-0.2,0.1-0.3,0.3-0.3c0,0,0,0,0,0h3.5c0.1,0,0.2,0,0.2,0.1c0.1,0.1,0.1,0.2,0.1,0.2L14.6,9.7z M14.6,5.6
		c0,0.2-0.1,0.3-0.3,0.3c0,0,0,0,0,0h-3.5c-0.2,0-0.3-0.1-0.3-0.3c0,0,0,0,0,0V3.5c0-0.2,0.1-0.3,0.3-0.3c0,0,0,0,0,0h3.5
		c0.2,0,0.3,0.1,0.3,0.3c0,0,0,0,0,0L14.6,5.6z"/>
</g>
<g id="barcode" transform="translate(2 1)" display="none">
	<path id="Union_9" style="fill:#97A4C1;" display="inline" d="M13.8,17V-1H16v18H13.8z M-2,17V-1h2.3v18H-2z M10.4,11.4V-1h2.3v12.4H10.4z M4.8,11.4V-1h4.5
		v12.4H4.8z M1.4,11.4V-1h2.3v12.4H1.4z"/>
</g>
<g id="icon-5" transform="translate(1.897)" display="none">
	<path id="Path_282" style="fill:#97A4C1;" display="inline" d="M13.8,12.4c0.2,0.2,0.3,0.3,0.4,0.4c0.1,0.1,0.3,0.2,0.4,0.4c0.1,0.1,0.2,0.1,0.3,0.2
		c0.1,0,0.4-0.2,0.7-0.5c0.3-0.3,0.5-0.6,0.5-0.7c0-0.1-0.1-0.2-0.3-0.4c-0.2-0.2-0.5-0.5-0.8-0.8c-0.3-0.3-0.6-0.6-0.9-0.9
		c-0.3-0.3-0.6-0.6-0.9-0.9c-0.3-0.3-0.4-0.4-0.5-0.5c-0.1-0.1-0.2-0.1-0.2-0.1c-0.1,0-0.4,0.2-0.7,0.5c-0.3,0.3-0.5,0.6-0.5,0.7
		c0,0.1,0.1,0.2,0.2,0.3c0.1,0.1,0.2,0.3,0.4,0.4c0.1,0.1,0.3,0.3,0.4,0.4l0.3,0.3l-1,1L7.7,8.3C8.5,7.2,9,5.8,9.1,4.4
		c0.1-2.1-1.5-3.8-3.6-3.9c-0.1,0-0.2,0-0.4,0c-1.2,0-2.3,0.4-3.3,1c-1.1,0.7-2,1.6-2.7,2.7c-0.6,1-1,2.2-1,3.3
		c-0.1,2.1,1.5,3.8,3.6,3.9c0.1,0,0.2,0,0.4,0c1.4,0,2.8-0.5,3.9-1.4l7.2,7.2c0.2,0.2,0.5,0.3,0.7,0.3c0.7-0.1,1.2-0.6,1.3-1.3
		c0-0.3-0.1-0.5-0.3-0.7l-2.4-2.4l1-1C13.5,12.1,13.6,12.2,13.8,12.4z M6.4,6.1C6,6.4,5.5,6.7,5,6.7c-0.3,0-0.6-0.1-0.9-0.2
		C4.2,6.7,4.3,7,4.3,7.3c0,1.1-0.9,2.1-2.1,2.1S0.2,8.5,0.2,7.3s0.9-2.1,2.1-2.1c0,0,0,0,0,0c0.3,0,0.6,0.1,0.9,0.2
		C3,5.2,2.9,4.9,2.9,4.6c0-1.1,0.9-2,2.1-2c1.1,0,2,0.9,2,2.1C7,5.2,6.8,5.7,6.4,6.1L6.4,6.1z"/>
</g>
<g id="Group_20" transform="translate(0 1)" display="none">
	<g id="Group_19" display="inline">
		<path id="Path_279" style="fill:#97A4C1;" d="M9,3.7L2.6,9c0,0,0,0,0,0c0,0,0,0,0,0v5.4c0,0.4,0.3,0.7,0.7,0.7h4.3v-4.3h2.9v4.3h4.3
			c0.4,0,0.7-0.3,0.7-0.7V9.1c0,0,0,0,0-0.1L9,3.7z"/>
		<path id="Path_280" style="fill:#97A4C1;" d="M17.9,7.8l-2.4-2V1.2c0-0.2-0.1-0.4-0.3-0.4c0,0,0,0,0,0h-2.1c-0.2,0-0.4,0.1-0.4,0.3
			c0,0,0,0,0,0v2.2L9.8,1.1c-0.5-0.4-1.2-0.4-1.7,0l-8,6.7C0.1,7.9,0,8,0,8.1c0,0.1,0,0.2,0.1,0.3l0.7,0.8C0.8,9.2,0.9,9.3,1,9.3
			c0.1,0,0.2,0,0.3-0.1L9,2.7l7.7,6.4c0.1,0.1,0.1,0.1,0.2,0.1h0c0.1,0,0.2-0.1,0.2-0.1l0.7-0.8C18,8.2,18,8.1,18,8.1
			C18,8,18,7.9,17.9,7.8z"/>
	</g>
</g>
</svg>
