<?xml version="1.0" encoding="utf-8"?>
<!-- Generator: Adobe Illustrator 24.1.2, SVG Export Plug-In . SVG Version: 6.00 Build 0)  -->
<svg version="1.1" id="Layer_1" xmlns="http://www.w3.org/2000/svg" xmlns:xlink="http://www.w3.org/1999/xlink" x="0px" y="0px"
	 viewBox="0 0 16 16" style="enable-background:new 0 0 16 16;" xml:space="preserve">
<style type="text/css">
	.st0{fill:#37C12F;}
</style>
<g id="mail" transform="translate(-248 -249.905)">
	<g id="Group_320">
		<g id="Group_319">
			<path id="Path_9130" class="st0" d="M262.6,251.8h-13.2c-0.2,0-0.4,0.1-0.6,0.2l7.2,7.2l1.6-1.5l0,0l5.6-5.6
				C263,251.9,262.8,251.8,262.6,251.8z"/>
		</g>
	</g>
	<g id="Group_322">
		<g id="Group_321">
			<path id="Path_9131" class="st0" d="M263.8,252.7l-5.3,5.3l5.3,5.3c0.1-0.2,0.1-0.4,0.2-0.6v-9.4
				C264,253,263.9,252.8,263.8,252.7z"/>
		</g>
	</g>
	<g id="Group_324">
		<g id="Group_323">
			<path id="Path_9132" class="st0" d="M248.2,252.7c-0.1,0.2-0.1,0.4-0.2,0.6v9.4c0,0.2,0.1,0.4,0.2,0.6l5.3-5.3L248.2,252.7z"/>
		</g>
	</g>
	<g id="Group_326">
		<g id="Group_325">
			<path id="Path_9133" class="st0" d="M257.9,258.6l-1.6,1.5c-0.1,0.2-0.4,0.2-0.5,0.1c0,0-0.1,0-0.1-0.1l-1.5-1.5l-5.3,5.3
				c0.2,0.1,0.4,0.1,0.6,0.2h13.2c0.2,0,0.4-0.1,0.6-0.2L257.9,258.6z"/>
		</g>
	</g>
</g>
</svg>
