<?xml version="1.0" encoding="utf-8"?>
<!-- Generator: Adobe Illustrator 24.1.2, SVG Export Plug-In . SVG Version: 6.00 Build 0)  -->
<svg version="1.1" id="Layer_1" xmlns="http://www.w3.org/2000/svg" xmlns:xlink="http://www.w3.org/1999/xlink" x="0px" y="0px"
	 viewBox="0 0 24 24" style="enable-background:new 0 0 24 24;" xml:space="preserve">
<g id="Notification-icon" transform="translate(-294.036 -293.999)">
	<g id="Group_9209">
		<g id="Group_9208">
			<path id="Path_13670" d="M314.6,312.3c-2.1-1-2.2-5.1-2.2-5.2v-2.8c0-2.6-1.6-4.9-3.9-5.9c0-1.4-1.1-2.5-2.5-2.5
				s-2.5,1.1-2.5,2.5c-2.4,1-3.9,3.3-3.9,5.9v2.8c0,0.1-0.1,4.2-2.2,5.2c-0.3,0.1-0.4,0.5-0.3,0.7c0.1,0.2,0.3,0.3,0.5,0.3h5.4
				c0.1,0.6,0.4,1.2,0.8,1.6c1.1,1.2,3,1.3,4.2,0.1c0,0,0.1-0.1,0.1-0.1c0.4-0.4,0.7-1,0.8-1.6h5.4c0.3,0,0.6-0.3,0.6-0.6
				C315,312.6,314.8,312.4,314.6,312.3L314.6,312.3z M311.8,310.4c0.2,0.7,0.6,1.3,1,1.9h-13.6c0.4-0.6,0.8-1.2,1-1.9H311.8z
				 M306,297.1c0.6,0,1.1,0.4,1.3,1c-0.9-0.2-1.8-0.2-2.6,0C304.9,297.5,305.4,297.1,306,297.1z M300.7,307.2v-2.8
				c0-2.9,2.4-5.3,5.3-5.3c2.9,0,5.3,2.4,5.3,5.3v2.8c0,0.7,0.1,1.4,0.2,2.1h-11.1C300.6,308.6,300.7,307.9,300.7,307.2L300.7,307.2
				z M306,314.9c-0.9,0-1.6-0.6-1.9-1.4h3.7C307.6,314.3,306.9,314.8,306,314.9z"/>
		</g>
	</g>
</g>
</svg>
