<?xml version="1.0" encoding="utf-8"?>
<!-- Generator: Adobe Illustrator 24.1.2, SVG Export Plug-In . SVG Version: 6.00 Build 0)  -->
<svg version="1.1" id="Layer_1" xmlns="http://www.w3.org/2000/svg" xmlns:xlink="http://www.w3.org/1999/xlink" x="0px" y="0px"
	 viewBox="0 0 24 24" style="enable-background:new 0 0 24 24; fill:#4B4E56;" xml:space="preserve">
<style type="text/css">
	.st0{}
</style>
<g>
	<path id="Path_283" class="st0" d="M18.6,6.3c-0.1-0.1-0.2-0.1-0.3-0.1h-2.6c-0.1-0.8-0.5-1.5-1-2.1h3.5c0.3,0,0.5-0.2,0.5-0.4
		c0,0,0,0,0,0V2c0-0.3-0.2-0.5-0.4-0.5c0,0,0,0,0,0H5.8c-0.3,0-0.5,0.2-0.5,0.4c0,0,0,0,0,0v2c0,0.3,0.2,0.5,0.5,0.5h2.2
		c2.1,0,3.4,0.6,4,1.7H5.8c-0.3,0-0.5,0.2-0.5,0.4c0,0,0,0,0,0v1.5c0,0.3,0.2,0.5,0.4,0.5c0,0,0,0,0,0h6.4c-0.2,0.8-0.8,1.5-1.5,1.9
		c-1,0.5-2.1,0.7-3.2,0.6H5.8c-0.3,0-0.5,0.2-0.5,0.5v1.9c0,0.1,0,0.2,0.1,0.3c1.9,2,4.4,4.9,7.4,8.5c0.1,0.1,0.2,0.2,0.4,0.2h2.9
		c0.2,0,0.4-0.1,0.4-0.3c0.1-0.2,0.1-0.4-0.1-0.5c-2.9-3.6-5.2-6.2-6.8-8c1.5-0.1,2.9-0.7,4.1-1.6c1-0.9,1.7-2.1,1.9-3.5h2.5
		c0.3,0,0.5-0.2,0.5-0.4c0,0,0,0,0,0V6.6C18.7,6.5,18.7,6.4,18.6,6.3z"/>
</g>
</svg>
