<?xml version="1.0" encoding="utf-8"?>
<!-- Generator: Adobe Illustrator 24.1.2, SVG Export Plug-In . SVG Version: 6.00 Build 0)  -->
<svg version="1.1" id="Layer_1" xmlns="http://www.w3.org/2000/svg" xmlns:xlink="http://www.w3.org/1999/xlink" x="0px" y="0px"
	 viewBox="0 0 18 18" style="enable-background:new 0 0 18 18;" xml:space="preserve">
<style type="text/css">
	.st0{}
	.st1{display:none;}
	.st2{display:inline;fill:#97A4C1;}
	.st3{display:inline;}
</style>
<g id="settings-gear-64" transform="translate(2 1)">
	<path id="Path_108" style="fill:#97A4C1;" d="M13,4.8l1.2-2.4l-1.6-1.6l-2.4,1.2C9.9,1.9,9.5,1.8,9,1.7L8.1-1H5.9L5,1.6
		C4.6,1.7,4.2,1.8,3.8,2L1.5,0.8l-1.7,1.7L1,4.8C0.8,5.2,0.7,5.6,0.6,6L-2,6.9v2.3L0.6,10c0.1,0.4,0.3,0.8,0.5,1.2l-1.2,2.4l1.6,1.6
		L3.7,14c0.4,0.2,0.8,0.4,1.2,0.4L5.9,17h2.3L9,14.4c0.4-0.1,0.8-0.3,1.2-0.4l2.4,1.2l1.6-1.6L13,11.3c0.2-0.4,0.4-0.8,0.4-1.2
		L16,9.1V6.9L13.4,6C13.3,5.6,13.2,5.2,13,4.8z M7,11.4c-1.8,0-3.3-1.4-3.4-3.3c0,0,0-0.1,0-0.1c0-1.8,1.4-3.3,3.3-3.4
		c0,0,0.1,0,0.1,0c1.8,0,3.3,1.4,3.4,3.3c0,0,0,0.1,0,0.1c0,1.8-1.4,3.3-3.3,3.4C7.1,11.4,7,11.4,7,11.4z"/>
</g>
<g id="icon" transform="translate(1.898 1)" display="none">
	<path id="Path_281" style="fill:#97A4C1;" display="inline" d="M15.1,2c-0.2-0.2-0.6-0.4-0.9-0.4h-1.3v-1c0-0.9-0.7-1.6-1.6-1.6h-0.6C9.8-1,9-0.3,9,0.6v1H5.2
		v-1C5.2-0.3,4.5-1,3.6-1H2.9C2-1,1.3-0.3,1.3,0.6v1H0c-0.7,0-1.3,0.6-1.3,1.3v12.9c0,0.7,0.6,1.3,1.3,1.3h14.1
		c0.7,0,1.3-0.6,1.3-1.3V2.9C15.5,2.5,15.3,2.2,15.1,2z M10.3,0.6c0-0.2,0.1-0.3,0.3-0.3c0,0,0,0,0,0h0.6c0.2,0,0.3,0.1,0.3,0.3
		c0,0,0,0,0,0v2.9c0,0.2-0.1,0.3-0.3,0.3c0,0,0,0,0,0h-0.6c-0.2,0-0.3-0.1-0.3-0.3c0,0,0,0,0,0V0.6z M2.6,0.6c0-0.2,0.1-0.3,0.3-0.3
		c0,0,0,0,0,0h0.6c0.2,0,0.3,0.1,0.3,0.3c0,0,0,0,0,0v2.9c0,0.2-0.1,0.3-0.3,0.3c0,0,0,0,0,0H2.9c-0.2,0-0.3-0.1-0.3-0.3
		c0,0,0,0,0,0V0.6z M14.2,15.7H0V5.4h14.1L14.2,15.7z"/>
</g>
<g id="Group_23" transform="translate(1.898 1)" display="none">
	<path id="Path_288" style="fill:#97A4C1;" display="inline" d="M15.8,1.3c0.5-0.7,0.3-1.6-0.3-2c-0.5-0.4-1.2-0.4-1.7,0c-0.8,0.3-1.6,0.8-2.2,1.4l-2,2L1,0.7
		c-0.1,0-0.3,0-0.4,0.1L-1,2.4c-0.1,0.1-0.1,0.2-0.1,0.3C-1.1,2.9-1,3-0.9,3.1l6.5,3.6L2.3,9.9l-2.5-0.7c0,0-0.1,0-0.1,0
		c-0.1,0-0.2,0-0.3,0.1l-1.2,1.2c-0.1,0.1-0.1,0.2-0.1,0.3c0,0.1,0.1,0.2,0.2,0.3l3.2,2.4l2.4,3.2C4,16.9,4.1,17,4.2,17h0
		c0.1,0,0.2,0,0.3-0.1l1.2-1.2c0.1-0.1,0.1-0.3,0.1-0.4l-0.7-2.5l3.3-3.3l3.6,6.5c0,0.1,0.2,0.2,0.3,0.2c0,0,0.1,0,0.1,0
		c0.1,0,0.2,0,0.2-0.1l1.6-1.2c0.1-0.1,0.2-0.3,0.2-0.4l-2.1-8.9l2.1-2.1C15.1,2.9,15.5,2.1,15.8,1.3z"/>
</g>
<g id="icon-2" transform="translate(1.898 2)" display="none">
	<g id="Group_21" class="st3">
		<path id="Path_286" class="fill:#97A4C1;" d="M14.1,0c-0.6-0.6-1.4-1-2.3-1H2.4C0.6-1-0.9,0.5-0.9,2.3v9.5c0,1.8,1.5,3.3,3.3,3.3h9.5
			c1.8,0,3.3-1.5,3.3-3.3V2.3C15.1,1.4,14.8,0.6,14.1,0z M13.6,11.7c0,1-0.8,1.8-1.8,1.8H2.4c-1,0-1.8-0.8-1.8-1.8V2.3
			c0-1,0.8-1.8,1.8-1.8h9.5c1,0,1.8,0.8,1.8,1.8V11.7L13.6,11.7z"/>
	</g>
	<g id="Group_22" transform="translate(4.099 4.099)" class="st3">
		<path id="Path_287" class="fill:#97A4C1;" d="M6.4-0.5C6.1-0.8,5.7-1,5.3-1H0.7c-0.9,0-1.6,0.7-1.6,1.6v0v4.6c0,0.9,0.7,1.6,1.6,1.6h0h4.6
			c0.9,0,1.6-0.7,1.6-1.6v0V0.6C6.9,0.2,6.7-0.2,6.4-0.5z"/>
	</g>
</g>
<g id="icon-3" transform="translate(1.898 2)" display="none">
	<path id="Path_285" style="fill:#97A4C1;" display="inline" d="M15.1,1c-0.2-0.2-0.6-0.4-0.9-0.4h-1.3v-1c0-0.9-0.7-1.6-1.6-1.6h-0.6C9.8-2,9-1.3,9-0.4v1H5.2
		v-1C5.2-1.3,4.5-2,3.6-2H2.9C2-2,1.3-1.3,1.3-0.4v1H0c-0.7,0-1.3,0.6-1.3,1.3v12.9c0,0.7,0.6,1.3,1.3,1.3h14.1
		c0.7,0,1.3-0.6,1.3-1.3V1.9C15.5,1.5,15.3,1.2,15.1,1z M2.9,14.7H0v-2.9h2.9V14.7z M2.9,11.2H0V8h2.9V11.2z M2.9,7.3H0V4.4h2.9V7.3
		z M2.7,2.7C2.6,2.7,2.6,2.6,2.6,2.5v-2.9c0-0.2,0.1-0.3,0.3-0.3h0.6c0.2,0,0.3,0.1,0.3,0.3v2.9c0,0.2-0.1,0.3-0.3,0.3H2.9
		C2.8,2.8,2.8,2.8,2.7,2.7L2.7,2.7z M6.8,14.7H3.6v-2.9h3.2V14.7L6.8,14.7z M6.8,11.2H3.6V8h3.2V11.2z M6.8,7.3H3.6V4.4h3.2V7.3z
		 M10.6,14.7H7.4v-2.9h3.2V14.7z M10.6,11.2H7.4V8h3.2V11.2z M10.6,7.3H7.4V4.4h3.2V7.3z M10.4,2.7c-0.1-0.1-0.1-0.1-0.1-0.2v-2.9
		c0-0.2,0.1-0.3,0.3-0.3h0.6c0.2,0,0.3,0.1,0.3,0.3v2.9c0,0.2-0.1,0.3-0.3,0.3h-0.6C10.6,2.8,10.5,2.8,10.4,2.7L10.4,2.7z
		 M14.2,14.7h-2.9v-2.9h2.9L14.2,14.7z M14.2,11.2h-2.9V8h2.9L14.2,11.2z M14.2,7.3h-2.9V4.4h2.9L14.2,7.3z"/>
</g>
<g id="chat-46" transform="translate(2 1)" display="none">
	<path id="Union_11" style="fill:#97A4C1;" display="inline" d="M9.3,13.6H3.6l2.1-2.3h6.9c0.6,0,1.1-0.5,1.1-1.1V3.5h1.1C15.5,3.5,16,4,16,4.6v7.9
		c0,0.6-0.5,1.1-1.1,1.1h-2.3V17L9.3,13.6z M1.4,9.1h-2.3C-1.5,9.1-2,8.6-2,8V0.1C-2-0.5-1.5-1-0.9-1h11.3c0.6,0,1.1,0.5,1.1,1.1V8
		c0,0.6-0.5,1.1-1.1,1.1H4.8l-3.4,3.4V9.1z"/>
</g>
<g id="icon-4" transform="translate(2 1)" display="none">
	<path id="Path_284" style="fill:#97A4C1;" display="inline" d="M15.5,0.9c-0.3-0.3-0.8-0.5-1.2-0.5H-0.3c-1,0-1.7,0.8-1.7,1.7v11.8c0,1,0.8,1.7,1.7,1.7h14.5
		c1,0,1.7-0.8,1.7-1.7V2.1C16,1.7,15.8,1.2,15.5,0.9z M3.5,13.9c0,0.2-0.1,0.3-0.3,0.3c0,0,0,0,0,0h-3.5c-0.2,0-0.3-0.1-0.3-0.3
		c0,0,0,0,0,0v-2.1c0-0.2,0.1-0.3,0.3-0.3c0,0,0,0,0,0h3.5c0.2,0,0.3,0.1,0.3,0.3c0,0,0,0,0,0V13.9z M3.5,9.7c0,0.1,0,0.2-0.1,0.2
		c-0.1,0.1-0.2,0.1-0.2,0.1h-3.5c-0.2,0-0.3-0.1-0.3-0.3c0,0,0,0,0,0V7.7c0-0.2,0.1-0.3,0.3-0.3c0,0,0,0,0,0h3.5
		c0.2,0,0.3,0.1,0.3,0.3c0,0,0,0,0,0V9.7L3.5,9.7z M3.5,5.6c0,0.1,0,0.2-0.1,0.2C3.4,5.9,3.3,5.9,3.2,5.9h-3.5c-0.1,0-0.2,0-0.2-0.1
		c-0.1-0.1-0.1-0.2-0.1-0.2V3.5c0-0.2,0.1-0.3,0.3-0.3c0,0,0,0,0,0h3.5c0.2,0,0.3,0.1,0.3,0.3c0,0,0,0,0,0L3.5,5.6L3.5,5.6z
		 M9.1,13.9c0,0.1,0,0.2-0.1,0.2c-0.1,0.1-0.2,0.1-0.2,0.1H5.3c-0.2,0-0.3-0.1-0.3-0.3c0,0,0,0,0,0v-2.1c0-0.2,0.1-0.3,0.3-0.3
		c0,0,0,0,0,0h3.5c0.2,0,0.3,0.1,0.3,0.3c0,0,0,0,0,0L9.1,13.9L9.1,13.9z M9.1,9.7c0,0.2-0.1,0.3-0.3,0.3c0,0,0,0,0,0H5.3
		c-0.2,0-0.3-0.1-0.3-0.3c0,0,0,0,0,0V7.7c0-0.2,0.1-0.3,0.3-0.3c0,0,0,0,0,0h3.5c0.1,0,0.2,0,0.2,0.1C9,7.5,9.1,7.6,9.1,7.7
		L9.1,9.7L9.1,9.7z M9.1,5.6c0,0.2-0.1,0.3-0.3,0.3c0,0,0,0,0,0H5.3c-0.1,0-0.2,0-0.2-0.1C5,5.8,4.9,5.7,4.9,5.6V3.5
		c0-0.2,0.1-0.3,0.3-0.3c0,0,0,0,0,0h3.5c0.2,0,0.3,0.1,0.3,0.3c0,0,0,0,0,0L9.1,5.6L9.1,5.6z M14.6,13.9c0,0.1,0,0.2-0.1,0.2
		c-0.1,0.1-0.2,0.1-0.2,0.1h-3.5c-0.2,0-0.3-0.1-0.3-0.3c0,0,0,0,0,0v-2.1c0-0.2,0.1-0.3,0.3-0.3c0,0,0,0,0,0h3.5
		c0.2,0,0.3,0.1,0.3,0.3c0,0,0,0,0,0L14.6,13.9z M14.6,9.7c0,0.2-0.1,0.3-0.3,0.3c0,0,0,0,0,0h-3.5c-0.2,0-0.3-0.1-0.3-0.3
		c0,0,0,0,0,0V7.7c0-0.2,0.1-0.3,0.3-0.3c0,0,0,0,0,0h3.5c0.1,0,0.2,0,0.2,0.1c0.1,0.1,0.1,0.2,0.1,0.2L14.6,9.7z M14.6,5.6
		c0,0.2-0.1,0.3-0.3,0.3c0,0,0,0,0,0h-3.5c-0.2,0-0.3-0.1-0.3-0.3c0,0,0,0,0,0V3.5c0-0.2,0.1-0.3,0.3-0.3c0,0,0,0,0,0h3.5
		c0.2,0,0.3,0.1,0.3,0.3c0,0,0,0,0,0L14.6,5.6z"/>
</g>
<g id="barcode" transform="translate(2 1)" display="none">
	<path id="Union_9" style="fill:#97A4C1;" display="inline" d="M13.8,17V-1H16v18H13.8z M-2,17V-1h2.3v18H-2z M10.4,11.4V-1h2.3v12.4H10.4z M4.8,11.4V-1h4.5
		v12.4H4.8z M1.4,11.4V-1h2.3v12.4H1.4z"/>
</g>
<g id="icon-5" transform="translate(1.897)" display="none">
	<path id="Path_282" style="fill:#97A4C1;" display="inline" d="M13.8,12.4c0.2,0.2,0.3,0.3,0.4,0.4c0.1,0.1,0.3,0.2,0.4,0.4c0.1,0.1,0.2,0.1,0.3,0.2
		c0.1,0,0.4-0.2,0.7-0.5c0.3-0.3,0.5-0.6,0.5-0.7c0-0.1-0.1-0.2-0.3-0.4c-0.2-0.2-0.5-0.5-0.8-0.8c-0.3-0.3-0.6-0.6-0.9-0.9
		c-0.3-0.3-0.6-0.6-0.9-0.9c-0.3-0.3-0.4-0.4-0.5-0.5c-0.1-0.1-0.2-0.1-0.2-0.1c-0.1,0-0.4,0.2-0.7,0.5c-0.3,0.3-0.5,0.6-0.5,0.7
		c0,0.1,0.1,0.2,0.2,0.3c0.1,0.1,0.2,0.3,0.4,0.4c0.1,0.1,0.3,0.3,0.4,0.4l0.3,0.3l-1,1L7.7,8.3C8.5,7.2,9,5.8,9.1,4.4
		c0.1-2.1-1.5-3.8-3.6-3.9c-0.1,0-0.2,0-0.4,0c-1.2,0-2.3,0.4-3.3,1c-1.1,0.7-2,1.6-2.7,2.7c-0.6,1-1,2.2-1,3.3
		c-0.1,2.1,1.5,3.8,3.6,3.9c0.1,0,0.2,0,0.4,0c1.4,0,2.8-0.5,3.9-1.4l7.2,7.2c0.2,0.2,0.5,0.3,0.7,0.3c0.7-0.1,1.2-0.6,1.3-1.3
		c0-0.3-0.1-0.5-0.3-0.7l-2.4-2.4l1-1C13.5,12.1,13.6,12.2,13.8,12.4z M6.4,6.1C6,6.4,5.5,6.7,5,6.7c-0.3,0-0.6-0.1-0.9-0.2
		C4.2,6.7,4.3,7,4.3,7.3c0,1.1-0.9,2.1-2.1,2.1S0.2,8.5,0.2,7.3s0.9-2.1,2.1-2.1c0,0,0,0,0,0c0.3,0,0.6,0.1,0.9,0.2
		C3,5.2,2.9,4.9,2.9,4.6c0-1.1,0.9-2,2.1-2c1.1,0,2,0.9,2,2.1C7,5.2,6.8,5.7,6.4,6.1L6.4,6.1z"/>
</g>
<g id="Group_20" transform="translate(0 1)" display="none">
	<g id="Group_19" display="inline">
		<path id="Path_279" style="fill:#97A4C1;" d="M9,3.7L2.6,9c0,0,0,0,0,0c0,0,0,0,0,0v5.4c0,0.4,0.3,0.7,0.7,0.7h4.3v-4.3h2.9v4.3h4.3
			c0.4,0,0.7-0.3,0.7-0.7V9.1c0,0,0,0,0-0.1L9,3.7z"/>
		<path id="Path_280" style="fill:#97A4C1;" d="M17.9,7.8l-2.4-2V1.2c0-0.2-0.1-0.4-0.3-0.4c0,0,0,0,0,0h-2.1c-0.2,0-0.4,0.1-0.4,0.3
			c0,0,0,0,0,0v2.2L9.8,1.1c-0.5-0.4-1.2-0.4-1.7,0l-8,6.7C0.1,7.9,0,8,0,8.1c0,0.1,0,0.2,0.1,0.3l0.7,0.8C0.8,9.2,0.9,9.3,1,9.3
			c0.1,0,0.2,0,0.3-0.1L9,2.7l7.7,6.4c0.1,0.1,0.1,0.1,0.2,0.1h0c0.1,0,0.2-0.1,0.2-0.1l0.7-0.8C18,8.2,18,8.1,18,8.1
			C18,8,18,7.9,17.9,7.8z"/>
	</g>
</g>
</svg>
