<?xml version="1.0" encoding="utf-8"?>
<!-- Generator: Adobe Illustrator 24.1.2, SVG Export Plug-In . SVG Version: 6.00 Build 0)  -->
<svg version="1.1" id="Layer_1" xmlns="http://www.w3.org/2000/svg" xmlns:xlink="http://www.w3.org/1999/xlink" x="0px" y="0px"
	 viewBox="0 0 18 18" style="enable-background:new 0 0 18 18;" xml:space="preserve">
<style type="text/css">
	.st0{fill:#757575;}
</style>
<g id="Double_Arrow_Up_Down">
	<path id="Path_13632" class="st0" d="M15.6,4l-3.9-3.9c-0.2-0.2-0.6-0.2-0.8,0L6.9,4c-0.2,0.2-0.2,0.6,0,0.8c0,0,0,0,0,0
		C7.1,5,7.5,5,7.7,4.8l3-2.9v8.8c0,0.3,0.3,0.6,0.6,0.6s0.6-0.3,0.6-0.6V1.9l3,2.9C15,5,15.4,5,15.6,4.8C15.8,4.6,15.8,4.3,15.6,4
		C15.6,4,15.6,4,15.6,4z"/>
	<path id="Path_13633" class="st0" d="M10.3,13.2l-3,2.9V7.3c0-0.3-0.3-0.6-0.6-0.6S6.2,7,6.2,7.3v8.8l-3-2.9C3,13,2.6,13,2.4,13.2
		c-0.2,0.2-0.2,0.6,0,0.8c0,0,0,0,0,0l3.9,3.9c0.2,0.2,0.6,0.2,0.8,0l3.9-3.9c0.2-0.2,0.2-0.6,0-0.8c0,0,0,0,0,0
		C10.8,13,10.5,13,10.3,13.2z"/>
</g>
</svg>
